<svg width="23" height="23" viewBox="0 0 23 23" fill="none" xmlns="http://www.w3.org/2000/svg">
<path d="M4.02499 4.6C3.07264 4.6 2.29999 5.37265 2.29999 6.325C2.29999 6.86765 2.55514 7.37797 2.98999 7.705L10.465 13.3112C11.0795 13.7712 11.9205 13.7712 12.535 13.3112L20.01 7.705C20.4448 7.37797 20.7 6.86765 20.7 6.325C20.7 5.37265 19.9273 4.6 18.975 4.6H4.02499ZM2.29999 9.34375V16.1C2.29999 17.3686 3.33139 18.4 4.59999 18.4H18.4C19.6686 18.4 20.7 17.3686 20.7 16.1V9.34375L13.57 14.6912C12.3445 15.6112 10.6555 15.6112 9.42999 14.6912L2.29999 9.34375Z" fill="#FFFEFE"/>
</svg>
