<svg width="23" height="23" viewBox="0 0 23 23" fill="none" xmlns="http://www.w3.org/2000/svg">
<path d="M10.8136 4.21187L6.62331 8.86937C6.45799 9.05266 6.46518 9.33656 6.64127 9.51266C7.73737 10.6087 9.51627 10.6087 10.6124 9.51266L11.7552 8.36984C11.9061 8.2189 12.0966 8.13625 12.2907 8.12187C12.535 8.10031 12.7866 8.18297 12.9735 8.36984L19.32 14.6625L21.85 12.65V2.3L17.825 4.6L16.9697 4.02859C16.4019 3.65125 15.7371 3.45 15.0542 3.45H12.5242C12.4847 3.45 12.4416 3.45 12.4021 3.45359C11.7947 3.48594 11.2233 3.75906 10.8136 4.21187ZM5.34034 7.71578L9.17846 3.45H7.75534C6.83893 3.45 5.96206 3.81297 5.31518 4.45984L1.15002 9.2V21.85L6.32502 16.9625L6.77065 17.3327C7.59721 18.0227 8.6394 18.4 9.71393 18.4H10.2782L10.0266 18.1484C9.68878 17.8106 9.68878 17.2644 10.0266 16.9302C10.3644 16.5959 10.9107 16.5923 11.2449 16.9302L12.7183 18.4036H13.0417C13.7282 18.4036 14.4002 18.2491 15.0111 17.9616L14.0516 16.9984C13.7138 16.6606 13.7138 16.1144 14.0516 15.7802C14.3894 15.4459 14.9356 15.4423 15.2699 15.7802L16.4199 16.9302L17.0488 16.3012C17.3686 15.9814 17.4621 15.5178 17.3219 15.1117L12.3661 10.1955L11.8307 10.7309C10.0589 12.5027 7.19112 12.5027 5.4194 10.7309C4.59284 9.90437 4.56049 8.57828 5.34034 7.71219V7.71578Z" fill="white"/>
</svg>
