<svg width="23" height="23" viewBox="0 0 23 23" fill="none" xmlns="http://www.w3.org/2000/svg">
<path d="M12.2834 2.60906C11.8414 2.19937 11.1586 2.19937 10.7202 2.60906L2.67016 10.0841C2.32516 10.4075 2.21016 10.907 2.38266 11.3455C2.55516 11.7839 2.97563 12.075 3.45 12.075H4.025V18.4C4.025 19.6686 5.05641 20.7 6.325 20.7H16.675C17.9436 20.7 18.975 19.6686 18.975 18.4V12.075H19.55C20.0244 12.075 20.4484 11.7839 20.6209 11.3455C20.7934 10.907 20.6784 10.4039 20.3334 10.0841L12.2834 2.60906ZM10.925 13.8H12.075C13.0273 13.8 13.8 14.5727 13.8 15.525V18.975H9.2V15.525C9.2 14.5727 9.97266 13.8 10.925 13.8Z" fill="white"/>
</svg>
