<svg width="23" height="23" viewBox="0 0 23 23" fill="none" xmlns="http://www.w3.org/2000/svg">
<path d="M10.8783 2.48328C11.2556 2.23891 11.7444 2.23891 12.1217 2.48328L20.1717 7.65828C20.5994 7.935 20.797 8.45969 20.6533 8.94844C20.5095 9.43719 20.0603 9.775 19.55 9.775H18.4V17.25L20.24 18.63C20.5311 18.8456 20.7 19.187 20.7 19.55C20.7 20.1861 20.1861 20.7 19.55 20.7H3.44999C2.81389 20.7 2.29999 20.1861 2.29999 19.55C2.29999 19.187 2.46889 18.8456 2.75999 18.63L4.59999 17.25V9.775H3.44999C2.93968 9.775 2.49046 9.43719 2.34671 8.94844C2.20296 8.45969 2.40061 7.93141 2.82827 7.65828L10.8783 2.48328ZM14.375 9.775V17.25H16.675V9.775H14.375ZM10.35 17.25H12.65V9.775H10.35V17.25ZM6.32499 9.775V17.25H8.62499V9.775H6.32499Z" fill="white"/>
</svg>
