<svg width="40" height="40" viewBox="0 0 40 40" fill="none" xmlns="http://www.w3.org/2000/svg">
<path d="M20 0C31.0457 2.57703e-07 40 8.95431 40 20C40 31.0457 31.0457 40 20 40C8.95431 40 2.5772e-07 31.0457 0 20C0 8.9543 8.9543 0 20 0ZM20 8.33301C13.5671 8.33301 8.33306 13.5521 8.33301 19.9668C8.33301 26.3816 13.567 31.6006 20 31.6006C22.3567 31.6006 24.6291 30.9008 26.5713 29.5771L26.6055 29.5537L25.0332 27.7324L25.0068 27.749C23.5116 28.7082 21.7801 29.2158 20 29.2158C14.8859 29.2158 10.7256 25.0664 10.7256 19.9668C10.7256 14.8672 14.886 10.7188 20 10.7188C25.1139 10.7188 29.2744 14.8673 29.2744 19.9668C29.2744 20.6276 29.2004 21.2969 29.0557 21.9551C28.7621 23.1551 27.9202 23.5233 27.2871 23.4746C26.6509 23.4234 25.9065 22.9707 25.9014 21.8643V19.9668C25.9013 16.7222 23.2538 14.0821 20 14.082C16.7461 14.082 14.0987 16.7221 14.0986 19.9668C14.0986 23.2116 16.7461 25.8516 20 25.8516C21.5804 25.8515 23.0631 25.2348 24.1807 24.1143C24.8304 25.1227 25.8905 25.7551 27.0957 25.8516C27.199 25.8599 27.3044 25.8643 27.4092 25.8643C28.2578 25.8643 29.0991 25.5818 29.7773 25.0684C30.4767 24.539 30.9988 23.7729 31.2871 22.8535C31.333 22.7073 31.415 22.3746 31.418 22.3623L31.4209 22.3496C31.5908 21.6112 31.666 20.8755 31.666 19.9668C31.666 13.5521 26.4329 8.3331 20 8.33301Z" fill="white"/>
<path fill-rule="evenodd" clip-rule="evenodd" d="M23.5091 19.9668C23.5091 21.8964 21.9348 23.4662 19.9998 23.4662C18.0648 23.4662 16.4906 21.8964 16.4906 19.9668C16.4906 18.0373 18.0648 16.4675 19.9998 16.4675C21.9348 16.4675 23.5091 18.0373 23.5091 19.9668Z" fill="white"/>
</svg>
