<svg width="20" height="20" viewBox="0 0 20 20" fill="none" xmlns="http://www.w3.org/2000/svg">
<g clip-path="url(#clip0_15_82)">
<path fill-rule="evenodd" clip-rule="evenodd" d="M2.35635 0.638445C2.57507 0.420056 2.8377 0.250643 3.12685 0.141433C3.41599 0.0322224 3.72504 -0.0142913 4.03352 0.00497394C4.342 0.0242392 4.64287 0.108844 4.91618 0.25318C5.18949 0.397517 5.429 0.598291 5.61885 0.842195L7.8626 3.7247C8.27385 4.25345 8.41885 4.9422 8.25635 5.5922L7.5726 8.3297C7.53725 8.47148 7.53916 8.62 7.57814 8.76083C7.61713 8.90166 7.69187 9.03002 7.7951 9.13345L10.8664 12.2047C10.9699 12.3081 11.0985 12.383 11.2395 12.422C11.3806 12.461 11.5294 12.4628 11.6714 12.4272L14.4076 11.7434C14.7284 11.6632 15.0632 11.657 15.3867 11.7252C15.7102 11.7934 16.014 11.9343 16.2751 12.1372L19.1576 14.3797C20.1939 15.1859 20.2889 16.7172 19.3614 17.6434L18.0689 18.9359C17.1439 19.8609 15.7614 20.2672 14.4726 19.8134C11.1741 18.6529 8.17919 16.7645 5.7101 14.2884C3.23421 11.8197 1.34586 8.82527 0.1851 5.52719C-0.2674 4.2397 0.13885 2.85595 1.06385 1.93095L2.35635 0.638445Z" fill="white"/>
</g>
<defs>
<clipPath id="clip0_15_82">
<rect width="20" height="20" fill="white"/>
</clipPath>
</defs>
</svg>
