<svg width="41" height="41" viewBox="0 0 41 41" fill="none" xmlns="http://www.w3.org/2000/svg">
<path d="M26.1396 0C37.3464 0 40 2.65358 40 13.8604V26.1396C40 37.3464 37.3464 40 26.1396 40H13.8604C2.65358 40 0 37.3464 0 26.1396V13.8604C0 2.65358 2.65358 0 13.8604 0H26.1396ZM7.70605 12.6748C6.85974 12.675 6.71879 13.0699 6.71875 13.4932C6.71875 14.2553 7.7062 18.0947 11.3193 23.1758C13.7188 26.6479 17.135 28.5107 20.2119 28.5107C22.0749 28.5107 22.3008 28.0875 22.3008 27.3818V24.7568C22.3008 23.9102 22.47 23.7686 23.0625 23.7686C23.4859 23.7686 24.2488 23.9947 25.9707 25.6602C27.9463 27.6358 28.2852 28.5388 29.3857 28.5391H32.2939C33.1406 28.539 33.5354 28.1154 33.3096 27.2969C33.0554 26.4783 32.0962 25.2929 30.8545 23.8818C30.1771 23.0915 29.1603 22.2165 28.8496 21.793C28.4262 21.2284 28.5392 21.0022 28.8496 20.4941C28.8313 20.4802 32.3787 15.4668 32.7451 13.7754C32.9426 13.1544 32.7451 12.7031 31.8701 12.7031H28.9629C28.229 12.7031 27.89 13.0981 27.6924 13.5215C27.6924 13.5215 26.1963 17.1346 24.1074 19.4775C23.4299 20.155 23.1189 20.3809 22.752 20.3809C22.5544 20.3805 22.3008 20.1547 22.3008 19.5342V13.7471C22.3007 13.0134 22.0749 12.6749 21.4541 12.6748H16.8809C16.4292 12.6748 16.1465 13.0138 16.1465 13.3525C16.1468 14.058 17.1917 14.2276 17.3047 16.2031V20.4941C17.3047 21.4256 17.1345 21.5947 16.7676 21.5947C15.7794 21.5939 13.3799 17.9528 11.9404 13.8037C11.6582 12.9854 11.3762 12.6749 10.6426 12.6748H7.70605Z" fill="white"/>
</svg>
