<svg width="40" height="40" viewBox="0 0 40 40" fill="none" xmlns="http://www.w3.org/2000/svg">
<path d="M20 0C31.0457 2.57703e-07 40 8.95431 40 20C40 31.0457 31.0457 40 20 40C8.95431 40 2.5772e-07 31.0457 0 20C0 8.9543 8.9543 0 20 0ZM25.7588 21.207C25.298 20.4996 24.3314 20.2862 23.5986 20.7314C21.4086 22.0608 18.5892 22.0605 16.4004 20.7314C15.6676 20.2865 14.7009 20.4996 14.2412 21.207C13.7802 21.9139 13.9998 22.8477 14.7314 23.293C15.6981 23.8783 16.7478 24.2939 17.8359 24.5332L14.8467 27.4189C14.2358 28.0094 14.236 28.9672 14.8477 29.5576C15.1538 29.8524 15.5546 30 15.9551 30C16.3561 29.9999 16.7574 29.8524 17.0635 29.5576L19.999 26.7217L22.9385 29.5576C23.5495 30.1476 24.5408 30.1478 25.1523 29.5576C25.7646 28.9672 25.7646 28.0088 25.1523 27.4189L22.1631 24.5332C23.2512 24.2939 24.301 23.8789 25.2676 23.293C25.9992 22.8477 26.2198 21.9133 25.7588 21.207ZM19.9863 10C17.0379 10 14.6398 12.315 14.6396 15.1611C14.6396 18.0064 17.0378 20.3212 19.9863 20.3213C22.9355 20.3213 25.333 18.0064 25.333 15.1611C25.3329 12.315 22.9355 10 19.9863 10Z" fill="white"/>
<path d="M19.9864 13.0247C21.2072 13.0247 22.2002 13.9829 22.2002 15.1613C22.2002 16.3387 21.2072 17.2976 19.9864 17.2976C18.7666 17.2976 17.7727 16.3387 17.7727 15.1613C17.7727 13.9829 18.7666 13.0247 19.9864 13.0247Z" fill="white"/>
</svg>
