<svg width="40" height="40" viewBox="0 0 40 40" fill="none" xmlns="http://www.w3.org/2000/svg">
<path d="M20 0C31.0457 0 40 8.95431 40 20C40 31.0457 31.0457 40 20 40C8.95431 40 0 31.0457 0 20C0 8.95431 8.95431 0 20 0ZM29.957 13.0889C29.8109 11.8627 28.3237 12.1324 27.4961 12.4082C23.2418 14.027 19.03 15.7657 14.835 17.5352C12.3965 18.6155 9.78624 19.6907 7.44824 20.9785C6.30942 21.8125 8.24531 22.3632 9.56641 22.9102C11.0399 23.363 12.7583 24.0566 14.2324 23.2451C17.1183 21.5873 19.7891 19.5865 22.5264 17.7002C23.0247 17.3813 24.5346 16.3409 24.0234 17.5752C22.1284 19.6475 20.0073 21.3215 18.0078 23.292C17.3068 23.8617 16.5795 25.0071 17.3643 25.8047C19.7608 27.4825 22.2072 29.1064 24.6348 30.7461C25.6449 31.5526 27.2241 30.9008 27.4463 29.6406C28.0908 25.8573 28.7514 22.0742 29.3232 18.2783C29.5485 16.5522 29.8771 14.8252 29.957 13.0889Z" fill="white"/>
</svg>
